<?xml version="1.0" encoding="UTF-8" standalone="no"?>
<svg id="svg2" xmlns:rdf="http://www.w3.org/1999/02/22-rdf-syntax-ns#" xmlns="http://www.w3.org/2000/svg" height="100%" width="100%" version="1.1" xmlns:cc="http://creativecommons.org/ns#" xmlns:dc="http://purl.org/dc/elements/1.1/" viewBox="0 0 16.000001 16.000001">
 <metadata id="metadata12">
  <rdf:RDF>
   <cc:Work rdf:about="">
    <dc:format>image/svg+xml</dc:format>
    <dc:type rdf:resource="http://purl.org/dc/dcmitype/StillImage"/>
    <dc:title/>
   </cc:Work>
  </rdf:RDF>
 </metadata>
 <g id="g4135">
  <path id="path6" style="color:#bebebe" fill="#555" d="m8 0.0000043406c-4.4235 0-8 3.5765-8 8-4.5938e-7 4.423 3.5765 8 8 8 4.423 0 8-3.577 8-8 0-4.4235-3.577-8-8-8zm-3.4439 4.5561h1.148c0.011905-0.0001378 0.023866-0.0005281 0.035874 0 0.29268 0.012857 0.58532 0.14761 0.78924 0.35874l1.4708 1.4709 1.5067-1.4709c0.305-0.2646 0.5123-0.3507 0.7893-0.3587h1.148v1.148c0 0.32886-0.03942 0.63214-0.287 0.86099l-1.4709 1.4708 1.4349 1.435c0.21604 0.21602 0.32286 0.52055 0.32287 0.82511v1.148h-1.148c-0.3046 0-0.6091-0.107-0.8251-0.323l-1.4709-1.4708-1.4709 1.4708c-0.21601 0.21604-0.52056 0.32287-0.82511 0.32287h-1.148v-1.148c-0.0000034-0.30455 0.10683-0.6091 0.32287-0.82511l1.4709-1.435-1.4709-1.4709c-0.2419-0.2234-0.348-0.5387-0.3228-0.861v-1.148z"/>
 </g>
</svg>
